<svg id="Layer_1" data-name="Layer 1" xmlns="http://www.w3.org/2000/svg" viewBox="0 0 40 40"><defs><style>.cls-1{opacity:0.5;}.cls-2{fill:#fff;}</style></defs><g id="Logo"><g id="Planet" class="cls-1"><circle class="cls-2" cx="24.77" cy="14.84" r="1.13"/><path class="cls-2" d="M27.25,13.8a.2.2,0,0,0,.19-.19.19.19,0,0,0-.19-.19.18.18,0,0,0-.19.19A.19.19,0,0,0,27.25,13.8Z"/><path class="cls-2" d="M23.25,16.5a.32.32,0,0,0,.32.33.33.33,0,0,0,.33-.33.32.32,0,0,0-.33-.32A.32.32,0,0,0,23.25,16.5Z"/><path class="cls-2" d="M26.37,14.19a.42.42,0,1,0,.41-.41A.42.42,0,0,0,26.37,14.19Z"/><path class="cls-2" d="M16.59,22.44a.18.18,0,0,0-.19-.19.19.19,0,0,0-.19.19.2.2,0,0,0,.19.19A.19.19,0,0,0,16.59,22.44Z"/><path class="cls-2" d="M29.46,20.81a.2.2,0,0,0,.19.19.19.19,0,0,0,.19-.19.18.18,0,0,0-.19-.19A.19.19,0,0,0,29.46,20.81Z"/><path class="cls-2" d="M27.26,16.16a21.59,21.59,0,0,1-5.93,4.41,1.6,1.6,0,0,0-3.09.58,1.42,1.42,0,0,0,.07.42,1.28,1.28,0,0,0-.34-.06,1,1,0,0,0-1,1s0,.08,0,.12l-1,.44a42.69,42.69,0,0,0-4.26,2.15,10.06,10.06,0,0,0,1.2,1.93A77.66,77.66,0,0,0,21,22.82a32.83,32.83,0,0,0,8.74-8.19q-.33-.45-.69-.87A13.43,13.43,0,0,1,27.26,16.16Z"/><path class="cls-2" d="M31.63,20.51a10.78,10.78,0,0,0-.18-1.73,19.3,19.3,0,0,1-1.73,2.47.9.9,0,0,0-.6-.22,1,1,0,0,0-.95.95.94.94,0,0,0,.07.34.69.69,0,0,0-.44,1C24,27.11,19.19,29.8,17,30.39l.1,0a10.21,10.21,0,0,0,2.08.62C25.24,28.08,30.57,22.66,31.63,20.51Z"/><path class="cls-2" d="M23.06,12.25A68.33,68.33,0,0,1,17,18a1,1,0,0,1,.16.55,1,1,0,0,1-.8,1,.07.07,0,0,1,0,.05,1.28,1.28,0,0,1-1.28,1.28A1.26,1.26,0,0,1,14,20.25c-1.29.85-2.45,1.55-3.22,2a10,10,0,0,0,.65,2.43c.5-.41,1.43-1.12,3.11-2.31s5.54-4.26,8.68-6.73a1.78,1.78,0,0,1-.18-.77,1.74,1.74,0,0,1,1.74-1.74,1.67,1.67,0,0,1,1.11.41c.63-.49,1.17-.9,1.59-1.21a10.72,10.72,0,0,0-2.18-1.27l-.64-.23A12.52,12.52,0,0,0,23.06,12.25Zm-9.9,9a.16.16,0,0,1-.16-.16.16.16,0,0,1,.16-.15.16.16,0,1,1,0,.31Zm.64-.16a.27.27,0,1,1,.27-.27A.27.27,0,0,1,13.8,21.12Zm8-4.82a.2.2,0,1,1,0-.39.2.2,0,0,1,.19.19A.2.2,0,0,1,21.79,16.3Zm.48-.5a.42.42,0,1,1,.41-.42A.41.41,0,0,1,22.27,15.8Z"/><path class="cls-2" d="M20.7,11.55a.2.2,0,0,0,.19.19.19.19,0,0,0,.19-.19.18.18,0,0,0-.19-.19A.19.19,0,0,0,20.7,11.55Z"/><path class="cls-2" d="M18.93,12.1c.94-.79,1.66-1.38,2.22-1.83a10.63,10.63,0,0,0-1.28.07c-2.17,1.62-5.77,3.53-7.74,5a10.21,10.21,0,0,0-.67,1.32A10.48,10.48,0,0,0,11,17.89C12.83,16.61,16.43,14.18,18.93,12.1Z"/><path class="cls-2" d="M16.5,16.4a.49.49,0,0,1-.11-.31.5.5,0,0,1,.5-.5h0a.66.66,0,0,1-.06-.27.64.64,0,0,1,.64-.64.63.63,0,0,1,.59.42c.39-.31.76-.61,1.1-.9,2-1.68,3.68-2.9,4.69-3.62-.33-.08-.67-.15-1-.2l-.36.34a.68.68,0,0,0-.6-.34.69.69,0,0,0-.7.69.71.71,0,0,0,.25.54c-2.18,1.62-7.44,4.77-10.61,7.25a11,11,0,0,0-.16,1.92V21C12,20,14.32,18.17,16.5,16.4Zm1.65-2.09a.18.18,0,0,1,.18.19.18.18,0,0,1-.36,0A.18.18,0,0,1,18.15,14.31Z"/><path class="cls-2" d="M30.64,25.29l.21-.43a10.13,10.13,0,0,0,.71-2.79A24.28,24.28,0,0,1,25,28.62a.72.72,0,0,1,.2.49.68.68,0,0,1-.68.68.78.78,0,0,1-.21,0,.49.49,0,0,1,0,.12.89.89,0,0,1-.89.89.88.88,0,0,1-.81-.54c-.58.36-1.15.69-1.73,1h.42a10.33,10.33,0,0,0,3.79-.69A37.15,37.15,0,0,0,30.64,25.29ZM26,28.7a.24.24,0,1,1,0,.47.23.23,0,0,1-.23-.23A.23.23,0,0,1,26,28.7Z"/></g><g id="Cosmic"><path class="cls-2" d="M31.56,16.24a13.26,13.26,0,0,0,1.94-5.43,14.33,14.33,0,0,0-5,1.38,12.19,12.19,0,0,0-3-1.92,11.12,11.12,0,0,0-8.81,0,11.67,11.67,0,0,0-3.62,2.5,11.86,11.86,0,0,0-2.44,3.65,11.1,11.1,0,0,0-.88,4.36,11.21,11.21,0,0,0,.88,4.42c.17.39.36.76.56,1.12a16.72,16.72,0,0,0-2.55,4.54A16,16,0,0,0,14.5,30a11.59,11.59,0,0,0,2.2,1.25,11.46,11.46,0,0,0,8.81,0,11.74,11.74,0,0,0,3.65-2.44,11.36,11.36,0,0,0,2.49-3.62,11,11,0,0,0,.89-4.42,10.93,10.93,0,0,0-.89-4.36Zm-20.1.42a10.11,10.11,0,0,1,2.22-3.35A10.46,10.46,0,0,1,17,11.06a10.63,10.63,0,0,1,4.13-.79,10.59,10.59,0,0,1,4.13.79,10.27,10.27,0,0,1,3.32,2.25,10,10,0,0,1,.89,1.06C26.84,19.11,18.9,25.72,13.23,27.62a10.12,10.12,0,0,1-2.56-6.83A10.66,10.66,0,0,1,11.46,16.66Zm19.39,8.2a10.85,10.85,0,0,1-2.18,3.33,9.88,9.88,0,0,1-3.27,2.24,10.18,10.18,0,0,1-4.06.8,10.69,10.69,0,0,1-4.2-.8,10,10,0,0,1-1.53-.79,29.84,29.84,0,0,0,8.78-5.19A32,32,0,0,0,31,17.16a10.83,10.83,0,0,1-.16,7.7Z"/></g><path id="Exhaust" class="cls-2" d="M5.05,11.23C.82,19.07,3.3,25.49,3.3,25.49a18.54,18.54,0,0,1,.6-14.32c4.27-8.54,13.3-7.7,13.3-7.7S8.86,4.14,5.05,11.23Z"/><path id="Rocket" class="cls-2" d="M22.36,3.09a4.88,4.88,0,0,0-.81-.4,8.19,8.19,0,0,0-1.25,0,9,9,0,0,1-.87-.78c-.1-.1-.71-.06-.76.05a6.42,6.42,0,0,0,0,1.08l.94.11-1,.06c-.16,0-.18.07-.18.23s0,.23.19.23l1,.06-.95.12a5.83,5.83,0,0,0,0,1c0,.11.66.15.76,0a9,9,0,0,1,.87-.78,8.19,8.19,0,0,0,1.25,0,4.36,4.36,0,0,0,.81-.41A.59.59,0,0,0,22.36,3.09Zm-.7.63a.67.67,0,0,1-.27.24.44.44,0,0,1-.17,0,.22.22,0,0,1-.15,0,.18.18,0,0,1,0-.19.52.52,0,0,1,.08-.11.28.28,0,0,0,.07-.19.34.34,0,0,0-.07-.19A1,1,0,0,1,21,3.15a.18.18,0,0,1,0-.19.21.21,0,0,1,.14,0,.34.34,0,0,1,.18,0,.76.76,0,0,1,.27.24.59.59,0,0,1,.05.27A.5.5,0,0,1,21.66,3.72Z"/><path id="UFO" class="cls-2" d="M30.19,7.45a.81.81,0,0,0-.9-.22.8.8,0,0,0-.47.77,2.22,2.22,0,0,0-1,1.27A2.75,2.75,0,0,0,30,9.08c1.5-.62,1.79-1.43,1.79-1.43A2.25,2.25,0,0,0,30.19,7.45Zm-.52.73a.77.77,0,0,1-.65,0,.62.62,0,0,1,.34-.81.61.61,0,0,1,.8.34C30.18,7.87,29.91,8.08,29.67,8.18Z"/><path id="Star" class="cls-2" d="M13.53,33.74l-.35-.53s0-.05,0-.08L14.35,33l-1.13-.14,0-.07.36-.52L13,32.6l-.09,0-.15-1.14-.14,1.14-.07,0-.52-.36.35.53,0,.08L11.23,33l1.15.15,0,.06-.37.52.54-.35.07,0,.14,1.14.15-1.14.06,0Z"/><path id="Meteor" class="cls-2" d="M13.16,8.83a.35.35,0,0,1,0,.49c-.14.12-1.65,1-1.65,1s1-1.43,1.19-1.56A.34.34,0,0,1,13.16,8.83Z"/></g></svg>